<mxfile host="Electron" modified="2023-04-13T18:32:03.126Z" agent="Mozilla/5.0 (X11; Linux x86_64) AppleWebKit/537.36 (KHTML, like Gecko) draw.io/21.1.2 Chrome/106.0.5249.199 Electron/21.4.3 Safari/537.36" etag="b9KQzaRsXdwsPIDEaXGs" version="21.1.2" type="device">
  <diagram name="Page-1" id="R90DKx0LFUvj5Nsq8UyO">
    <mxGraphModel dx="1958" dy="1293" grid="1" gridSize="10" guides="1" tooltips="1" connect="1" arrows="1" fold="1" page="0" pageScale="1" pageWidth="827" pageHeight="1169" math="0" shadow="0">
      <root>
        <mxCell id="0" />
        <mxCell id="1" parent="0" />
        <mxCell id="VLAGOy37USX0JI3hglwO-1" value="Concrete Syntax Tree" style="rounded=0;whiteSpace=wrap;html=1;fontSize=24;" parent="1" vertex="1">
          <mxGeometry x="40" y="40" width="320" height="60" as="geometry" />
        </mxCell>
        <mxCell id="VLAGOy37USX0JI3hglwO-12" value="CstDeclarationList" style="rounded=0;whiteSpace=wrap;html=1;fontFamily=Courier New;align=left;fontStyle=1;fillColor=#dae8fc;strokeColor=#6c8ebf;" parent="1" vertex="1">
          <mxGeometry x="200" y="480" width="200" height="20" as="geometry" />
        </mxCell>
        <mxCell id="VLAGOy37USX0JI3hglwO-19" style="edgeStyle=orthogonalEdgeStyle;rounded=0;orthogonalLoop=1;jettySize=auto;html=1;entryX=0;entryY=0.5;entryDx=0;entryDy=0;startArrow=ERmandOne;startFill=0;" parent="1" source="VLAGOy37USX0JI3hglwO-13" target="VLAGOy37USX0JI3hglwO-2" edge="1">
          <mxGeometry relative="1" as="geometry">
            <Array as="points">
              <mxPoint x="160" y="510" />
              <mxPoint x="160" y="210" />
            </Array>
          </mxGeometry>
        </mxCell>
        <mxCell id="VLAGOy37USX0JI3hglwO-13" value="type" style="rounded=0;whiteSpace=wrap;html=1;fontFamily=Courier New;align=left;fillColor=#ffe6cc;strokeColor=#d79b00;" parent="1" vertex="1">
          <mxGeometry x="200" y="500" width="200" height="20" as="geometry" />
        </mxCell>
        <mxCell id="VLAGOy37USX0JI3hglwO-14" value="" style="group" parent="1" vertex="1" connectable="0">
          <mxGeometry x="200" y="200" width="200" height="100" as="geometry" />
        </mxCell>
        <mxCell id="VLAGOy37USX0JI3hglwO-2" value="CstDeclarationType" style="rounded=0;whiteSpace=wrap;html=1;fontFamily=Courier New;align=left;fontStyle=1;fillColor=#ffe6cc;strokeColor=#d79b00;" parent="VLAGOy37USX0JI3hglwO-14" vertex="1">
          <mxGeometry width="200" height="20" as="geometry" />
        </mxCell>
        <mxCell id="VLAGOy37USX0JI3hglwO-3" value="CST_CLASS_DECLARATION" style="rounded=0;whiteSpace=wrap;html=1;fontFamily=Courier New;align=left;fillColor=#ffe6cc;strokeColor=#d79b00;" parent="VLAGOy37USX0JI3hglwO-14" vertex="1">
          <mxGeometry y="20" width="200" height="20" as="geometry" />
        </mxCell>
        <mxCell id="VLAGOy37USX0JI3hglwO-4" value="CST_FUN_DECLARATION" style="rounded=0;whiteSpace=wrap;html=1;fontFamily=Courier New;align=left;fillColor=#ffe6cc;strokeColor=#d79b00;" parent="VLAGOy37USX0JI3hglwO-14" vertex="1">
          <mxGeometry y="40" width="200" height="20" as="geometry" />
        </mxCell>
        <mxCell id="VLAGOy37USX0JI3hglwO-5" value="CST_VAR_DECLARATION" style="rounded=0;whiteSpace=wrap;html=1;fontFamily=Courier New;align=left;fillColor=#ffe6cc;strokeColor=#d79b00;" parent="VLAGOy37USX0JI3hglwO-14" vertex="1">
          <mxGeometry y="60" width="200" height="20" as="geometry" />
        </mxCell>
        <mxCell id="VLAGOy37USX0JI3hglwO-6" value="CST_STATEMENT_DECLARATION" style="rounded=0;whiteSpace=wrap;html=1;fontFamily=Courier New;align=left;fillColor=#ffe6cc;strokeColor=#d79b00;" parent="VLAGOy37USX0JI3hglwO-14" vertex="1">
          <mxGeometry y="80" width="200" height="20" as="geometry" />
        </mxCell>
        <mxCell id="VLAGOy37USX0JI3hglwO-15" value="" style="group" parent="1" vertex="1" connectable="0">
          <mxGeometry x="200" y="340" width="200" height="100" as="geometry" />
        </mxCell>
        <mxCell id="VLAGOy37USX0JI3hglwO-7" value="CstDeclarationValue" style="rounded=0;whiteSpace=wrap;html=1;fontFamily=Courier New;align=left;fontStyle=1;fillColor=#d5e8d4;strokeColor=#82b366;" parent="VLAGOy37USX0JI3hglwO-15" vertex="1">
          <mxGeometry width="200" height="20" as="geometry" />
        </mxCell>
        <mxCell id="VLAGOy37USX0JI3hglwO-8" value="classDeclaration" style="rounded=0;whiteSpace=wrap;html=1;fontFamily=Courier New;align=left;fillColor=#d5e8d4;strokeColor=#82b366;" parent="VLAGOy37USX0JI3hglwO-15" vertex="1">
          <mxGeometry y="20" width="200" height="20" as="geometry" />
        </mxCell>
        <mxCell id="VLAGOy37USX0JI3hglwO-9" value="funDeclaration" style="rounded=0;whiteSpace=wrap;html=1;fontFamily=Courier New;align=left;fillColor=#d5e8d4;strokeColor=#82b366;" parent="VLAGOy37USX0JI3hglwO-15" vertex="1">
          <mxGeometry y="40" width="200" height="20" as="geometry" />
        </mxCell>
        <mxCell id="VLAGOy37USX0JI3hglwO-10" value="varDeclaration" style="rounded=0;whiteSpace=wrap;html=1;fontFamily=Courier New;align=left;fillColor=#d5e8d4;strokeColor=#82b366;" parent="VLAGOy37USX0JI3hglwO-15" vertex="1">
          <mxGeometry y="60" width="200" height="20" as="geometry" />
        </mxCell>
        <mxCell id="VLAGOy37USX0JI3hglwO-11" value="statement" style="rounded=0;whiteSpace=wrap;html=1;fontFamily=Courier New;align=left;fillColor=#d5e8d4;strokeColor=#82b366;" parent="VLAGOy37USX0JI3hglwO-15" vertex="1">
          <mxGeometry y="80" width="200" height="20" as="geometry" />
        </mxCell>
        <mxCell id="VLAGOy37USX0JI3hglwO-20" style="edgeStyle=orthogonalEdgeStyle;rounded=0;orthogonalLoop=1;jettySize=auto;html=1;entryX=0;entryY=0.5;entryDx=0;entryDy=0;jumpStyle=arc;startArrow=circlePlus;startFill=0;" parent="1" source="VLAGOy37USX0JI3hglwO-16" target="VLAGOy37USX0JI3hglwO-7" edge="1">
          <mxGeometry relative="1" as="geometry">
            <Array as="points">
              <mxPoint x="120" y="530" />
              <mxPoint x="120" y="350" />
            </Array>
          </mxGeometry>
        </mxCell>
        <mxCell id="VLAGOy37USX0JI3hglwO-16" value="declaration" style="rounded=0;whiteSpace=wrap;html=1;fontFamily=Courier New;align=left;fillColor=#d5e8d4;strokeColor=#82b366;" parent="1" vertex="1">
          <mxGeometry x="200" y="520" width="200" height="20" as="geometry" />
        </mxCell>
        <mxCell id="VLAGOy37USX0JI3hglwO-18" style="edgeStyle=orthogonalEdgeStyle;rounded=0;orthogonalLoop=1;jettySize=auto;html=1;entryX=1;entryY=0.5;entryDx=0;entryDy=0;" parent="1" source="VLAGOy37USX0JI3hglwO-17" target="VLAGOy37USX0JI3hglwO-12" edge="1">
          <mxGeometry relative="1" as="geometry">
            <Array as="points">
              <mxPoint x="480" y="550" />
              <mxPoint x="480" y="490" />
            </Array>
          </mxGeometry>
        </mxCell>
        <mxCell id="VLAGOy37USX0JI3hglwO-17" value="next" style="rounded=0;whiteSpace=wrap;html=1;fontFamily=Courier New;align=left;fillColor=#dae8fc;strokeColor=#6c8ebf;" parent="1" vertex="1">
          <mxGeometry x="200" y="540" width="200" height="20" as="geometry" />
        </mxCell>
        <mxCell id="VLAGOy37USX0JI3hglwO-21" value="CstClassDeclaration" style="rounded=0;whiteSpace=wrap;html=1;fontFamily=Courier New;align=left;fontStyle=1;fillColor=#dae8fc;strokeColor=#6c8ebf;" parent="1" vertex="1">
          <mxGeometry x="800" y="280" width="200" height="20" as="geometry" />
        </mxCell>
        <mxCell id="VLAGOy37USX0JI3hglwO-22" value="name" style="rounded=0;whiteSpace=wrap;html=1;fontFamily=Courier New;align=left;fillColor=#f5f5f5;strokeColor=#666666;fontColor=#333333;" parent="1" vertex="1">
          <mxGeometry x="800" y="300" width="200" height="20" as="geometry" />
        </mxCell>
        <mxCell id="VLAGOy37USX0JI3hglwO-25" value="hasSuperclass" style="rounded=0;whiteSpace=wrap;html=1;fontFamily=Courier New;align=left;fillColor=#f5f5f5;fontColor=#333333;strokeColor=#666666;" parent="1" vertex="1">
          <mxGeometry x="800" y="320" width="200" height="20" as="geometry" />
        </mxCell>
        <mxCell id="VLAGOy37USX0JI3hglwO-26" value="superName" style="rounded=0;whiteSpace=wrap;html=1;fontFamily=Courier New;align=left;fillColor=#f5f5f5;strokeColor=#666666;fontColor=#333333;" parent="1" vertex="1">
          <mxGeometry x="800" y="340" width="200" height="20" as="geometry" />
        </mxCell>
        <mxCell id="VLAGOy37USX0JI3hglwO-34" style="edgeStyle=orthogonalEdgeStyle;rounded=0;orthogonalLoop=1;jettySize=auto;html=1;entryX=0;entryY=0.5;entryDx=0;entryDy=0;" parent="1" source="VLAGOy37USX0JI3hglwO-28" target="VLAGOy37USX0JI3hglwO-30" edge="1">
          <mxGeometry relative="1" as="geometry">
            <Array as="points">
              <mxPoint x="760" y="370" />
              <mxPoint x="760" y="430" />
            </Array>
          </mxGeometry>
        </mxCell>
        <mxCell id="VLAGOy37USX0JI3hglwO-28" value="methods" style="rounded=0;whiteSpace=wrap;html=1;fontFamily=Courier New;align=left;fillColor=#dae8fc;strokeColor=#6c8ebf;" parent="1" vertex="1">
          <mxGeometry x="800" y="360" width="200" height="20" as="geometry" />
        </mxCell>
        <mxCell id="VLAGOy37USX0JI3hglwO-29" style="edgeStyle=orthogonalEdgeStyle;rounded=0;orthogonalLoop=1;jettySize=auto;html=1;entryX=0;entryY=0.5;entryDx=0;entryDy=0;" parent="1" source="VLAGOy37USX0JI3hglwO-8" target="VLAGOy37USX0JI3hglwO-21" edge="1">
          <mxGeometry relative="1" as="geometry">
            <Array as="points">
              <mxPoint x="720" y="370" />
              <mxPoint x="720" y="290" />
            </Array>
          </mxGeometry>
        </mxCell>
        <mxCell id="VLAGOy37USX0JI3hglwO-30" value="CstMethodList" style="rounded=0;whiteSpace=wrap;html=1;fontFamily=Courier New;align=left;fontStyle=1;fillColor=#dae8fc;strokeColor=#6c8ebf;" parent="1" vertex="1">
          <mxGeometry x="800" y="420" width="200" height="20" as="geometry" />
        </mxCell>
        <mxCell id="VLAGOy37USX0JI3hglwO-31" value="function" style="rounded=0;whiteSpace=wrap;html=1;fontFamily=Courier New;align=left;fillColor=#dae8fc;strokeColor=#6c8ebf;" parent="1" vertex="1">
          <mxGeometry x="800" y="440" width="200" height="20" as="geometry" />
        </mxCell>
        <mxCell id="VLAGOy37USX0JI3hglwO-33" style="edgeStyle=orthogonalEdgeStyle;rounded=0;orthogonalLoop=1;jettySize=auto;html=1;entryX=1;entryY=0.5;entryDx=0;entryDy=0;jumpStyle=arc;" parent="1" source="VLAGOy37USX0JI3hglwO-32" target="VLAGOy37USX0JI3hglwO-30" edge="1">
          <mxGeometry relative="1" as="geometry">
            <Array as="points">
              <mxPoint x="1040" y="470" />
              <mxPoint x="1040" y="430" />
            </Array>
          </mxGeometry>
        </mxCell>
        <mxCell id="VLAGOy37USX0JI3hglwO-32" value="next" style="rounded=0;whiteSpace=wrap;html=1;fontFamily=Courier New;align=left;fillColor=#dae8fc;strokeColor=#6c8ebf;" parent="1" vertex="1">
          <mxGeometry x="800" y="460" width="200" height="20" as="geometry" />
        </mxCell>
        <mxCell id="VLAGOy37USX0JI3hglwO-35" value="CstFunction" style="rounded=0;whiteSpace=wrap;html=1;fontFamily=Courier New;align=left;fontStyle=1;fillColor=#dae8fc;strokeColor=#6c8ebf;" parent="1" vertex="1">
          <mxGeometry x="800" y="520" width="200" height="20" as="geometry" />
        </mxCell>
        <mxCell id="VLAGOy37USX0JI3hglwO-42" style="edgeStyle=orthogonalEdgeStyle;rounded=0;orthogonalLoop=1;jettySize=auto;html=1;entryX=1;entryY=0.5;entryDx=0;entryDy=0;jumpStyle=arc;" parent="1" source="VLAGOy37USX0JI3hglwO-36" target="VLAGOy37USX0JI3hglwO-38" edge="1">
          <mxGeometry relative="1" as="geometry">
            <Array as="points">
              <mxPoint x="560" y="550" />
              <mxPoint x="560" y="610" />
            </Array>
          </mxGeometry>
        </mxCell>
        <mxCell id="VLAGOy37USX0JI3hglwO-36" value="arguments" style="rounded=0;whiteSpace=wrap;html=1;fontFamily=Courier New;align=left;fillColor=#dae8fc;strokeColor=#6c8ebf;" parent="1" vertex="1">
          <mxGeometry x="800" y="540" width="200" height="20" as="geometry" />
        </mxCell>
        <mxCell id="VLAGOy37USX0JI3hglwO-80" style="edgeStyle=orthogonalEdgeStyle;rounded=0;orthogonalLoop=1;jettySize=auto;html=1;entryX=1;entryY=0.5;entryDx=0;entryDy=0;jumpStyle=arc;" parent="1" source="VLAGOy37USX0JI3hglwO-37" target="VLAGOy37USX0JI3hglwO-12" edge="1">
          <mxGeometry relative="1" as="geometry">
            <Array as="points">
              <mxPoint x="640" y="570" />
              <mxPoint x="640" y="490" />
            </Array>
          </mxGeometry>
        </mxCell>
        <mxCell id="VLAGOy37USX0JI3hglwO-37" value="declarations" style="rounded=0;whiteSpace=wrap;html=1;fontFamily=Courier New;align=left;fillColor=#dae8fc;strokeColor=#6c8ebf;" parent="1" vertex="1">
          <mxGeometry x="800" y="560" width="200" height="20" as="geometry" />
        </mxCell>
        <mxCell id="VLAGOy37USX0JI3hglwO-38" value="CstArgumentList" style="rounded=0;whiteSpace=wrap;html=1;fontFamily=Courier New;align=left;fontStyle=1;fillColor=#dae8fc;strokeColor=#6c8ebf;" parent="1" vertex="1">
          <mxGeometry x="200" y="600" width="200" height="20" as="geometry" />
        </mxCell>
        <mxCell id="VLAGOy37USX0JI3hglwO-39" value="name" style="rounded=0;whiteSpace=wrap;html=1;fontFamily=Courier New;align=left;fillColor=#f5f5f5;strokeColor=#666666;fontColor=#333333;" parent="1" vertex="1">
          <mxGeometry x="200" y="620" width="200" height="20" as="geometry" />
        </mxCell>
        <mxCell id="VLAGOy37USX0JI3hglwO-41" style="edgeStyle=orthogonalEdgeStyle;rounded=0;orthogonalLoop=1;jettySize=auto;html=1;entryX=0;entryY=0.5;entryDx=0;entryDy=0;" parent="1" source="VLAGOy37USX0JI3hglwO-40" target="VLAGOy37USX0JI3hglwO-38" edge="1">
          <mxGeometry relative="1" as="geometry">
            <Array as="points">
              <mxPoint x="160" y="650" />
              <mxPoint x="160" y="610" />
            </Array>
          </mxGeometry>
        </mxCell>
        <mxCell id="VLAGOy37USX0JI3hglwO-40" value="next" style="rounded=0;whiteSpace=wrap;html=1;fontFamily=Courier New;align=left;fillColor=#dae8fc;strokeColor=#6c8ebf;" parent="1" vertex="1">
          <mxGeometry x="200" y="640" width="200" height="20" as="geometry" />
        </mxCell>
        <mxCell id="VLAGOy37USX0JI3hglwO-43" value="CstFunDeclaration" style="rounded=0;whiteSpace=wrap;html=1;fontFamily=Courier New;align=left;fontStyle=1;fillColor=#dae8fc;strokeColor=#6c8ebf;" parent="1" vertex="1">
          <mxGeometry x="800" y="620" width="200" height="20" as="geometry" />
        </mxCell>
        <mxCell id="VLAGOy37USX0JI3hglwO-44" style="edgeStyle=orthogonalEdgeStyle;rounded=0;orthogonalLoop=1;jettySize=auto;html=1;entryX=0;entryY=0.25;entryDx=0;entryDy=0;jumpStyle=arc;" parent="1" source="VLAGOy37USX0JI3hglwO-9" target="VLAGOy37USX0JI3hglwO-43" edge="1">
          <mxGeometry relative="1" as="geometry">
            <Array as="points">
              <mxPoint x="600" y="390" />
              <mxPoint x="600" y="625" />
            </Array>
          </mxGeometry>
        </mxCell>
        <mxCell id="VLAGOy37USX0JI3hglwO-45" value="name" style="rounded=0;whiteSpace=wrap;html=1;fontFamily=Courier New;align=left;fillColor=#f5f5f5;strokeColor=#666666;fontColor=#333333;" parent="1" vertex="1">
          <mxGeometry x="800" y="640" width="200" height="20" as="geometry" />
        </mxCell>
        <mxCell id="VLAGOy37USX0JI3hglwO-47" style="edgeStyle=orthogonalEdgeStyle;rounded=0;orthogonalLoop=1;jettySize=auto;html=1;entryX=1;entryY=0.5;entryDx=0;entryDy=0;jumpStyle=arc;" parent="1" source="VLAGOy37USX0JI3hglwO-46" target="VLAGOy37USX0JI3hglwO-35" edge="1">
          <mxGeometry relative="1" as="geometry">
            <Array as="points">
              <mxPoint x="1040" y="670" />
              <mxPoint x="1040" y="530" />
            </Array>
          </mxGeometry>
        </mxCell>
        <mxCell id="VLAGOy37USX0JI3hglwO-46" value="function" style="rounded=0;whiteSpace=wrap;html=1;fontFamily=Courier New;align=left;fillColor=#dae8fc;strokeColor=#6c8ebf;" parent="1" vertex="1">
          <mxGeometry x="800" y="660" width="200" height="20" as="geometry" />
        </mxCell>
        <mxCell id="VLAGOy37USX0JI3hglwO-48" value="CstVarDeclaration" style="rounded=0;whiteSpace=wrap;html=1;fontFamily=Courier New;align=left;fontStyle=1;fillColor=#dae8fc;strokeColor=#6c8ebf;" parent="1" vertex="1">
          <mxGeometry x="800" y="720" width="200" height="20" as="geometry" />
        </mxCell>
        <mxCell id="VLAGOy37USX0JI3hglwO-49" style="edgeStyle=orthogonalEdgeStyle;rounded=0;orthogonalLoop=1;jettySize=auto;html=1;entryX=0;entryY=0.5;entryDx=0;entryDy=0;jumpStyle=arc;" parent="1" source="VLAGOy37USX0JI3hglwO-10" target="VLAGOy37USX0JI3hglwO-48" edge="1">
          <mxGeometry relative="1" as="geometry">
            <Array as="points">
              <mxPoint x="680" y="410" />
              <mxPoint x="680" y="730" />
            </Array>
          </mxGeometry>
        </mxCell>
        <mxCell id="VLAGOy37USX0JI3hglwO-50" value="name" style="rounded=0;whiteSpace=wrap;html=1;fontFamily=Courier New;align=left;fillColor=#f5f5f5;strokeColor=#666666;fontColor=#333333;" parent="1" vertex="1">
          <mxGeometry x="800" y="740" width="200" height="20" as="geometry" />
        </mxCell>
        <mxCell id="sUDtb3LlWLY9NKX-znG5-50" style="edgeStyle=orthogonalEdgeStyle;rounded=0;orthogonalLoop=1;jettySize=auto;html=1;entryX=0;entryY=0.5;entryDx=0;entryDy=0;jumpStyle=arc;" edge="1" parent="1" source="VLAGOy37USX0JI3hglwO-51" target="sUDtb3LlWLY9NKX-znG5-49">
          <mxGeometry relative="1" as="geometry">
            <Array as="points">
              <mxPoint x="1080" y="770" />
              <mxPoint x="1080" y="1170" />
            </Array>
          </mxGeometry>
        </mxCell>
        <mxCell id="VLAGOy37USX0JI3hglwO-51" value="initializer" style="rounded=0;whiteSpace=wrap;html=1;fontFamily=Courier New;align=left;fillColor=#dae8fc;strokeColor=#6c8ebf;" parent="1" vertex="1">
          <mxGeometry x="800" y="760" width="200" height="20" as="geometry" />
        </mxCell>
        <mxCell id="VLAGOy37USX0JI3hglwO-53" value="CstStatementType" style="rounded=0;whiteSpace=wrap;html=1;fontFamily=Courier New;align=left;fontStyle=1;fillColor=#ffe6cc;strokeColor=#d79b00;" parent="1" vertex="1">
          <mxGeometry x="200" y="700" width="200" height="20" as="geometry" />
        </mxCell>
        <mxCell id="VLAGOy37USX0JI3hglwO-54" value="CST_PRINT_STATEMENT" style="rounded=0;whiteSpace=wrap;html=1;fontFamily=Courier New;align=left;fillColor=#ffe6cc;strokeColor=#d79b00;" parent="1" vertex="1">
          <mxGeometry x="200" y="720" width="200" height="20" as="geometry" />
        </mxCell>
        <mxCell id="VLAGOy37USX0JI3hglwO-55" value="CST_SWITCH_STATEMENT" style="rounded=0;whiteSpace=wrap;html=1;fontFamily=Courier New;align=left;fillColor=#ffe6cc;strokeColor=#d79b00;" parent="1" vertex="1">
          <mxGeometry x="200" y="740" width="200" height="20" as="geometry" />
        </mxCell>
        <mxCell id="VLAGOy37USX0JI3hglwO-56" value="CST_FOR_STATEMENT" style="rounded=0;whiteSpace=wrap;html=1;fontFamily=Courier New;align=left;fillColor=#ffe6cc;strokeColor=#d79b00;" parent="1" vertex="1">
          <mxGeometry x="200" y="760" width="200" height="20" as="geometry" />
        </mxCell>
        <mxCell id="VLAGOy37USX0JI3hglwO-57" value="CST_IF_STATEMENT" style="rounded=0;whiteSpace=wrap;html=1;fontFamily=Courier New;align=left;fillColor=#ffe6cc;strokeColor=#d79b00;" parent="1" vertex="1">
          <mxGeometry x="200" y="780" width="200" height="20" as="geometry" />
        </mxCell>
        <mxCell id="VLAGOy37USX0JI3hglwO-58" value="CST_RETURN_STATEMENT" style="rounded=0;whiteSpace=wrap;html=1;fontFamily=Courier New;align=left;fillColor=#ffe6cc;strokeColor=#d79b00;" parent="1" vertex="1">
          <mxGeometry x="200" y="800" width="200" height="20" as="geometry" />
        </mxCell>
        <mxCell id="VLAGOy37USX0JI3hglwO-59" value="CST_WHILE_STATEMENT" style="rounded=0;whiteSpace=wrap;html=1;fontFamily=Courier New;align=left;fillColor=#ffe6cc;strokeColor=#d79b00;" parent="1" vertex="1">
          <mxGeometry x="200" y="820" width="200" height="20" as="geometry" />
        </mxCell>
        <mxCell id="VLAGOy37USX0JI3hglwO-60" value="CST_DO_STATEMENT" style="rounded=0;whiteSpace=wrap;html=1;fontFamily=Courier New;align=left;fillColor=#ffe6cc;strokeColor=#d79b00;" parent="1" vertex="1">
          <mxGeometry x="200" y="840" width="200" height="20" as="geometry" />
        </mxCell>
        <mxCell id="VLAGOy37USX0JI3hglwO-61" value="CST_BLOCK_STATEMENT" style="rounded=0;whiteSpace=wrap;html=1;fontFamily=Courier New;align=left;fillColor=#ffe6cc;strokeColor=#d79b00;" parent="1" vertex="1">
          <mxGeometry x="200" y="860" width="200" height="20" as="geometry" />
        </mxCell>
        <mxCell id="VLAGOy37USX0JI3hglwO-62" value="CST_EXPRESSION_STATEMENT" style="rounded=0;whiteSpace=wrap;html=1;fontFamily=Courier New;align=left;fillColor=#ffe6cc;strokeColor=#d79b00;" parent="1" vertex="1">
          <mxGeometry x="200" y="880" width="200" height="20" as="geometry" />
        </mxCell>
        <mxCell id="VLAGOy37USX0JI3hglwO-69" value="CstStatement" style="rounded=0;whiteSpace=wrap;html=1;fontFamily=Courier New;align=left;fontStyle=1;fillColor=#dae8fc;strokeColor=#6c8ebf;" parent="1" vertex="1">
          <mxGeometry x="200" y="1120" width="200" height="20" as="geometry" />
        </mxCell>
        <mxCell id="VLAGOy37USX0JI3hglwO-71" style="edgeStyle=orthogonalEdgeStyle;rounded=0;orthogonalLoop=1;jettySize=auto;html=1;entryX=0;entryY=0.5;entryDx=0;entryDy=0;startArrow=ERmandOne;startFill=0;" parent="1" source="VLAGOy37USX0JI3hglwO-70" target="VLAGOy37USX0JI3hglwO-53" edge="1">
          <mxGeometry relative="1" as="geometry">
            <Array as="points">
              <mxPoint x="160" y="1150" />
              <mxPoint x="160" y="710" />
            </Array>
          </mxGeometry>
        </mxCell>
        <mxCell id="VLAGOy37USX0JI3hglwO-70" value="type" style="rounded=0;whiteSpace=wrap;html=1;fontFamily=Courier New;align=left;fillColor=#ffe6cc;strokeColor=#d79b00;" parent="1" vertex="1">
          <mxGeometry x="200" y="1140" width="200" height="20" as="geometry" />
        </mxCell>
        <mxCell id="VLAGOy37USX0JI3hglwO-73" style="edgeStyle=orthogonalEdgeStyle;rounded=0;orthogonalLoop=1;jettySize=auto;html=1;entryX=0;entryY=0.5;entryDx=0;entryDy=0;jumpStyle=arc;startArrow=circlePlus;startFill=0;" parent="1" source="VLAGOy37USX0JI3hglwO-72" target="VLAGOy37USX0JI3hglwO-64" edge="1">
          <mxGeometry relative="1" as="geometry">
            <Array as="points">
              <mxPoint x="120" y="1170" />
              <mxPoint x="120" y="950" />
            </Array>
          </mxGeometry>
        </mxCell>
        <mxCell id="VLAGOy37USX0JI3hglwO-72" value="value" style="rounded=0;whiteSpace=wrap;html=1;fontFamily=Courier New;align=left;fillColor=#d5e8d4;strokeColor=#82b366;" parent="1" vertex="1">
          <mxGeometry x="200" y="1160" width="200" height="20" as="geometry" />
        </mxCell>
        <mxCell id="VLAGOy37USX0JI3hglwO-74" value="CstSwitchStatement" style="rounded=0;whiteSpace=wrap;html=1;fontFamily=Courier New;align=left;fontStyle=1;fillColor=#dae8fc;strokeColor=#6c8ebf;" parent="1" vertex="1">
          <mxGeometry x="800" y="820" width="200" height="20" as="geometry" />
        </mxCell>
        <mxCell id="VLAGOy37USX0JI3hglwO-75" style="edgeStyle=orthogonalEdgeStyle;rounded=0;orthogonalLoop=1;jettySize=auto;html=1;entryX=0;entryY=0.5;entryDx=0;entryDy=0;" parent="1" source="VLAGOy37USX0JI3hglwO-65" target="VLAGOy37USX0JI3hglwO-74" edge="1">
          <mxGeometry relative="1" as="geometry">
            <Array as="points">
              <mxPoint x="680" y="970" />
              <mxPoint x="680" y="830" />
            </Array>
          </mxGeometry>
        </mxCell>
        <mxCell id="sUDtb3LlWLY9NKX-znG5-51" style="edgeStyle=orthogonalEdgeStyle;rounded=0;orthogonalLoop=1;jettySize=auto;html=1;jumpStyle=arc;" edge="1" parent="1" source="VLAGOy37USX0JI3hglwO-76" target="sUDtb3LlWLY9NKX-znG5-49">
          <mxGeometry relative="1" as="geometry">
            <Array as="points">
              <mxPoint x="1080" y="850" />
              <mxPoint x="1080" y="1170" />
            </Array>
          </mxGeometry>
        </mxCell>
        <mxCell id="VLAGOy37USX0JI3hglwO-76" value="expression" style="rounded=0;whiteSpace=wrap;html=1;fontFamily=Courier New;align=left;fillColor=#dae8fc;strokeColor=#6c8ebf;" parent="1" vertex="1">
          <mxGeometry x="800" y="840" width="200" height="20" as="geometry" />
        </mxCell>
        <mxCell id="VLAGOy37USX0JI3hglwO-79" style="edgeStyle=orthogonalEdgeStyle;rounded=0;orthogonalLoop=1;jettySize=auto;html=1;entryX=1;entryY=0.5;entryDx=0;entryDy=0;" parent="1" source="VLAGOy37USX0JI3hglwO-77" target="VLAGOy37USX0JI3hglwO-78" edge="1">
          <mxGeometry relative="1" as="geometry">
            <Array as="points">
              <mxPoint x="1040" y="870" />
              <mxPoint x="1040" y="930" />
            </Array>
          </mxGeometry>
        </mxCell>
        <mxCell id="VLAGOy37USX0JI3hglwO-77" value="cases" style="rounded=0;whiteSpace=wrap;html=1;fontFamily=Courier New;align=left;fillColor=#dae8fc;strokeColor=#6c8ebf;" parent="1" vertex="1">
          <mxGeometry x="800" y="860" width="200" height="20" as="geometry" />
        </mxCell>
        <mxCell id="VLAGOy37USX0JI3hglwO-78" value="CstCaseList" style="rounded=0;whiteSpace=wrap;html=1;fontFamily=Courier New;align=left;fontStyle=1;fillColor=#dae8fc;strokeColor=#6c8ebf;" parent="1" vertex="1">
          <mxGeometry x="800" y="920" width="200" height="20" as="geometry" />
        </mxCell>
        <mxCell id="VLAGOy37USX0JI3hglwO-81" value="isDefault" style="rounded=0;whiteSpace=wrap;html=1;fontFamily=Courier New;align=left;fillColor=#f5f5f5;strokeColor=#666666;fontColor=#333333;" parent="1" vertex="1">
          <mxGeometry x="800" y="940" width="200" height="20" as="geometry" />
        </mxCell>
        <mxCell id="sUDtb3LlWLY9NKX-znG5-52" style="edgeStyle=orthogonalEdgeStyle;rounded=0;orthogonalLoop=1;jettySize=auto;html=1;entryX=0;entryY=0.5;entryDx=0;entryDy=0;jumpStyle=arc;" edge="1" parent="1" source="VLAGOy37USX0JI3hglwO-82" target="sUDtb3LlWLY9NKX-znG5-49">
          <mxGeometry relative="1" as="geometry">
            <Array as="points">
              <mxPoint x="1080" y="970" />
              <mxPoint x="1080" y="1170" />
            </Array>
          </mxGeometry>
        </mxCell>
        <mxCell id="VLAGOy37USX0JI3hglwO-82" value="expression" style="rounded=0;whiteSpace=wrap;html=1;fontFamily=Courier New;align=left;fillColor=#dae8fc;strokeColor=#6c8ebf;" parent="1" vertex="1">
          <mxGeometry x="800" y="960" width="200" height="20" as="geometry" />
        </mxCell>
        <mxCell id="VLAGOy37USX0JI3hglwO-84" style="edgeStyle=orthogonalEdgeStyle;rounded=0;orthogonalLoop=1;jettySize=auto;html=1;entryX=1;entryY=0.5;entryDx=0;entryDy=0;jumpStyle=arc;" parent="1" source="VLAGOy37USX0JI3hglwO-83" target="VLAGOy37USX0JI3hglwO-12" edge="1">
          <mxGeometry relative="1" as="geometry">
            <Array as="points">
              <mxPoint x="720" y="990" />
              <mxPoint x="720" y="490" />
            </Array>
          </mxGeometry>
        </mxCell>
        <mxCell id="VLAGOy37USX0JI3hglwO-83" value="declarations" style="rounded=0;whiteSpace=wrap;html=1;fontFamily=Courier New;align=left;fillColor=#dae8fc;strokeColor=#6c8ebf;" parent="1" vertex="1">
          <mxGeometry x="800" y="980" width="200" height="20" as="geometry" />
        </mxCell>
        <mxCell id="VLAGOy37USX0JI3hglwO-86" style="edgeStyle=orthogonalEdgeStyle;rounded=0;orthogonalLoop=1;jettySize=auto;html=1;entryX=0;entryY=0.5;entryDx=0;entryDy=0;jumpStyle=arc;" parent="1" source="VLAGOy37USX0JI3hglwO-85" target="VLAGOy37USX0JI3hglwO-78" edge="1">
          <mxGeometry relative="1" as="geometry">
            <Array as="points">
              <mxPoint x="760" y="1010" />
              <mxPoint x="760" y="930" />
            </Array>
          </mxGeometry>
        </mxCell>
        <mxCell id="VLAGOy37USX0JI3hglwO-85" value="next" style="rounded=0;whiteSpace=wrap;html=1;fontFamily=Courier New;align=left;fillColor=#dae8fc;strokeColor=#6c8ebf;" parent="1" vertex="1">
          <mxGeometry x="800" y="1000" width="200" height="20" as="geometry" />
        </mxCell>
        <mxCell id="VLAGOy37USX0JI3hglwO-64" value="CstStatementValue" style="rounded=0;whiteSpace=wrap;html=1;fontFamily=Courier New;align=left;fontStyle=1;fillColor=#d5e8d4;strokeColor=#82b366;" parent="1" vertex="1">
          <mxGeometry x="200" y="940" width="200" height="20" as="geometry" />
        </mxCell>
        <mxCell id="VLAGOy37USX0JI3hglwO-65" value="switchStatement" style="rounded=0;whiteSpace=wrap;html=1;fontFamily=Courier New;align=left;fillColor=#d5e8d4;strokeColor=#82b366;" parent="1" vertex="1">
          <mxGeometry x="200" y="960" width="200" height="20" as="geometry" />
        </mxCell>
        <mxCell id="VLAGOy37USX0JI3hglwO-101" style="edgeStyle=orthogonalEdgeStyle;rounded=0;orthogonalLoop=1;jettySize=auto;html=1;entryX=0;entryY=0.5;entryDx=0;entryDy=0;jumpStyle=arc;" parent="1" source="VLAGOy37USX0JI3hglwO-66" target="VLAGOy37USX0JI3hglwO-93" edge="1">
          <mxGeometry relative="1" as="geometry">
            <Array as="points">
              <mxPoint x="680" y="990" />
              <mxPoint x="680" y="1170" />
            </Array>
          </mxGeometry>
        </mxCell>
        <mxCell id="VLAGOy37USX0JI3hglwO-66" value="forStatement" style="rounded=0;whiteSpace=wrap;html=1;fontFamily=Courier New;align=left;fillColor=#d5e8d4;strokeColor=#82b366;" parent="1" vertex="1">
          <mxGeometry x="200" y="980" width="200" height="20" as="geometry" />
        </mxCell>
        <mxCell id="VLAGOy37USX0JI3hglwO-108" style="edgeStyle=orthogonalEdgeStyle;rounded=0;orthogonalLoop=1;jettySize=auto;html=1;entryX=0;entryY=0.5;entryDx=0;entryDy=0;jumpStyle=arc;" parent="1" source="VLAGOy37USX0JI3hglwO-67" target="VLAGOy37USX0JI3hglwO-103" edge="1">
          <mxGeometry relative="1" as="geometry">
            <Array as="points">
              <mxPoint x="600" y="1010" />
              <mxPoint x="600" y="1330" />
            </Array>
          </mxGeometry>
        </mxCell>
        <mxCell id="VLAGOy37USX0JI3hglwO-67" value="ifStatement" style="rounded=0;whiteSpace=wrap;html=1;fontFamily=Courier New;align=left;fillColor=#d5e8d4;strokeColor=#82b366;" parent="1" vertex="1">
          <mxGeometry x="200" y="1000" width="200" height="20" as="geometry" />
        </mxCell>
        <mxCell id="sUDtb3LlWLY9NKX-znG5-8" style="edgeStyle=orthogonalEdgeStyle;rounded=0;orthogonalLoop=1;jettySize=auto;html=1;entryX=0;entryY=0.5;entryDx=0;entryDy=0;jumpStyle=arc;" edge="1" parent="1" source="VLAGOy37USX0JI3hglwO-68" target="sUDtb3LlWLY9NKX-znG5-3">
          <mxGeometry relative="1" as="geometry">
            <Array as="points">
              <mxPoint x="720" y="1030" />
              <mxPoint x="720" y="1450" />
            </Array>
          </mxGeometry>
        </mxCell>
        <mxCell id="VLAGOy37USX0JI3hglwO-68" value="conditionalStatement" style="rounded=0;whiteSpace=wrap;html=1;fontFamily=Courier New;align=left;fillColor=#d5e8d4;strokeColor=#82b366;" parent="1" vertex="1">
          <mxGeometry x="200" y="1020" width="200" height="20" as="geometry" />
        </mxCell>
        <mxCell id="VLAGOy37USX0JI3hglwO-107" style="edgeStyle=orthogonalEdgeStyle;rounded=0;orthogonalLoop=1;jettySize=auto;html=1;jumpStyle=arc;" parent="1" source="VLAGOy37USX0JI3hglwO-87" edge="1">
          <mxGeometry relative="1" as="geometry">
            <Array as="points">
              <mxPoint x="440" y="1050" />
              <mxPoint x="440" y="490" />
            </Array>
            <mxPoint x="400" y="490" as="targetPoint" />
          </mxGeometry>
        </mxCell>
        <mxCell id="VLAGOy37USX0JI3hglwO-87" value="blockStatement" style="rounded=0;whiteSpace=wrap;html=1;fontFamily=Courier New;align=left;fillColor=#d5e8d4;strokeColor=#82b366;" parent="1" vertex="1">
          <mxGeometry x="200" y="1040" width="200" height="20" as="geometry" />
        </mxCell>
        <mxCell id="sUDtb3LlWLY9NKX-znG5-58" style="edgeStyle=orthogonalEdgeStyle;rounded=0;orthogonalLoop=1;jettySize=auto;html=1;entryX=0;entryY=0.5;entryDx=0;entryDy=0;jumpStyle=arc;" edge="1" parent="1" source="VLAGOy37USX0JI3hglwO-88" target="sUDtb3LlWLY9NKX-znG5-49">
          <mxGeometry relative="1" as="geometry">
            <Array as="points">
              <mxPoint x="640" y="1070" />
              <mxPoint x="640" y="1140" />
              <mxPoint x="1080" y="1140" />
              <mxPoint x="1080" y="1170" />
            </Array>
          </mxGeometry>
        </mxCell>
        <mxCell id="VLAGOy37USX0JI3hglwO-88" value="expression" style="rounded=0;whiteSpace=wrap;html=1;fontFamily=Courier New;align=left;fillColor=#d5e8d4;strokeColor=#82b366;" parent="1" vertex="1">
          <mxGeometry x="200" y="1060" width="200" height="20" as="geometry" />
        </mxCell>
        <mxCell id="VLAGOy37USX0JI3hglwO-89" value="CstForInitializer" style="rounded=0;whiteSpace=wrap;html=1;fontFamily=Courier New;align=left;fontStyle=1;fillColor=#d5e8d4;strokeColor=#82b366;" parent="1" vertex="1">
          <mxGeometry x="800" y="1060" width="200" height="20" as="geometry" />
        </mxCell>
        <mxCell id="VLAGOy37USX0JI3hglwO-91" style="edgeStyle=orthogonalEdgeStyle;rounded=0;orthogonalLoop=1;jettySize=auto;html=1;entryX=1;entryY=0.5;entryDx=0;entryDy=0;jumpStyle=arc;" parent="1" source="VLAGOy37USX0JI3hglwO-90" target="VLAGOy37USX0JI3hglwO-48" edge="1">
          <mxGeometry relative="1" as="geometry">
            <Array as="points">
              <mxPoint x="1120" y="1090" />
              <mxPoint x="1120" y="730" />
            </Array>
          </mxGeometry>
        </mxCell>
        <mxCell id="VLAGOy37USX0JI3hglwO-90" value="declaration" style="rounded=0;whiteSpace=wrap;html=1;fontFamily=Courier New;align=left;fillColor=#d5e8d4;strokeColor=#82b366;" parent="1" vertex="1">
          <mxGeometry x="800" y="1080" width="200" height="20" as="geometry" />
        </mxCell>
        <mxCell id="sUDtb3LlWLY9NKX-znG5-53" style="edgeStyle=orthogonalEdgeStyle;rounded=0;orthogonalLoop=1;jettySize=auto;html=1;entryX=0;entryY=0.5;entryDx=0;entryDy=0;jumpStyle=arc;" edge="1" parent="1" source="VLAGOy37USX0JI3hglwO-92" target="sUDtb3LlWLY9NKX-znG5-49">
          <mxGeometry relative="1" as="geometry">
            <Array as="points">
              <mxPoint x="1080" y="1110" />
              <mxPoint x="1080" y="1170" />
            </Array>
          </mxGeometry>
        </mxCell>
        <mxCell id="VLAGOy37USX0JI3hglwO-92" value="expression" style="rounded=0;whiteSpace=wrap;html=1;fontFamily=Courier New;align=left;fillColor=#d5e8d4;strokeColor=#82b366;" parent="1" vertex="1">
          <mxGeometry x="800" y="1100" width="200" height="20" as="geometry" />
        </mxCell>
        <mxCell id="VLAGOy37USX0JI3hglwO-93" value="CstForStatement" style="rounded=0;whiteSpace=wrap;html=1;fontFamily=Courier New;align=left;fontStyle=1;fillColor=#dae8fc;strokeColor=#6c8ebf;" parent="1" vertex="1">
          <mxGeometry x="800" y="1160" width="200" height="20" as="geometry" />
        </mxCell>
        <mxCell id="VLAGOy37USX0JI3hglwO-94" value="isDeclaration" style="rounded=0;whiteSpace=wrap;html=1;fontFamily=Courier New;align=left;fillColor=#f5f5f5;strokeColor=#666666;fontColor=#333333;" parent="1" vertex="1">
          <mxGeometry x="800" y="1180" width="200" height="20" as="geometry" />
        </mxCell>
        <mxCell id="VLAGOy37USX0JI3hglwO-96" style="edgeStyle=orthogonalEdgeStyle;rounded=0;orthogonalLoop=1;jettySize=auto;html=1;entryX=0;entryY=0.5;entryDx=0;entryDy=0;jumpStyle=arc;startArrow=circlePlus;startFill=0;" parent="1" source="VLAGOy37USX0JI3hglwO-95" target="VLAGOy37USX0JI3hglwO-89" edge="1">
          <mxGeometry relative="1" as="geometry">
            <Array as="points">
              <mxPoint x="760" y="1210" />
              <mxPoint x="760" y="1070" />
            </Array>
          </mxGeometry>
        </mxCell>
        <mxCell id="VLAGOy37USX0JI3hglwO-95" value="init" style="rounded=0;whiteSpace=wrap;html=1;fontFamily=Courier New;align=left;fillColor=#d5e8d4;strokeColor=#82b366;" parent="1" vertex="1">
          <mxGeometry x="800" y="1200" width="200" height="20" as="geometry" />
        </mxCell>
        <mxCell id="sUDtb3LlWLY9NKX-znG5-54" style="edgeStyle=orthogonalEdgeStyle;rounded=0;orthogonalLoop=1;jettySize=auto;html=1;entryX=0;entryY=0.5;entryDx=0;entryDy=0;jumpStyle=arc;" edge="1" parent="1" source="VLAGOy37USX0JI3hglwO-97" target="sUDtb3LlWLY9NKX-znG5-49">
          <mxGeometry relative="1" as="geometry">
            <Array as="points">
              <mxPoint x="1080" y="1230" />
              <mxPoint x="1080" y="1170" />
            </Array>
          </mxGeometry>
        </mxCell>
        <mxCell id="VLAGOy37USX0JI3hglwO-97" value="test" style="rounded=0;whiteSpace=wrap;html=1;fontFamily=Courier New;align=left;fillColor=#dae8fc;strokeColor=#6c8ebf;" parent="1" vertex="1">
          <mxGeometry x="800" y="1220" width="200" height="20" as="geometry" />
        </mxCell>
        <mxCell id="sUDtb3LlWLY9NKX-znG5-55" style="edgeStyle=orthogonalEdgeStyle;rounded=0;orthogonalLoop=1;jettySize=auto;html=1;jumpStyle=arc;" edge="1" parent="1" source="VLAGOy37USX0JI3hglwO-98" target="sUDtb3LlWLY9NKX-znG5-49">
          <mxGeometry relative="1" as="geometry">
            <Array as="points">
              <mxPoint x="1080" y="1250" />
              <mxPoint x="1080" y="1170" />
            </Array>
          </mxGeometry>
        </mxCell>
        <mxCell id="VLAGOy37USX0JI3hglwO-98" value="update" style="rounded=0;whiteSpace=wrap;html=1;fontFamily=Courier New;align=left;fillColor=#dae8fc;strokeColor=#6c8ebf;" parent="1" vertex="1">
          <mxGeometry x="800" y="1240" width="200" height="20" as="geometry" />
        </mxCell>
        <mxCell id="VLAGOy37USX0JI3hglwO-100" style="edgeStyle=orthogonalEdgeStyle;rounded=0;orthogonalLoop=1;jettySize=auto;html=1;jumpStyle=arc;entryX=1;entryY=1;entryDx=0;entryDy=0;" parent="1" source="VLAGOy37USX0JI3hglwO-99" edge="1" target="VLAGOy37USX0JI3hglwO-69">
          <mxGeometry relative="1" as="geometry">
            <mxPoint x="280" y="1130" as="targetPoint" />
            <Array as="points">
              <mxPoint x="520" y="1270" />
              <mxPoint x="520" y="1140" />
            </Array>
          </mxGeometry>
        </mxCell>
        <mxCell id="VLAGOy37USX0JI3hglwO-99" value="body" style="rounded=0;whiteSpace=wrap;html=1;fontFamily=Courier New;align=left;fillColor=#dae8fc;strokeColor=#6c8ebf;" parent="1" vertex="1">
          <mxGeometry x="800" y="1260" width="200" height="20" as="geometry" />
        </mxCell>
        <mxCell id="VLAGOy37USX0JI3hglwO-102" style="edgeStyle=orthogonalEdgeStyle;rounded=0;orthogonalLoop=1;jettySize=auto;html=1;entryX=1;entryY=0;entryDx=0;entryDy=0;jumpStyle=arc;" parent="1" source="VLAGOy37USX0JI3hglwO-11" target="VLAGOy37USX0JI3hglwO-69" edge="1">
          <mxGeometry relative="1" as="geometry">
            <Array as="points">
              <mxPoint x="520" y="430" />
              <mxPoint x="520" y="1120" />
            </Array>
          </mxGeometry>
        </mxCell>
        <mxCell id="VLAGOy37USX0JI3hglwO-103" value="CstIfStatement" style="rounded=0;whiteSpace=wrap;html=1;fontFamily=Courier New;align=left;fontStyle=1;fillColor=#dae8fc;strokeColor=#6c8ebf;" parent="1" vertex="1">
          <mxGeometry x="800" y="1320" width="200" height="20" as="geometry" />
        </mxCell>
        <mxCell id="sUDtb3LlWLY9NKX-znG5-56" style="edgeStyle=orthogonalEdgeStyle;rounded=0;orthogonalLoop=1;jettySize=auto;html=1;entryX=0;entryY=0.5;entryDx=0;entryDy=0;jumpStyle=arc;" edge="1" parent="1" source="VLAGOy37USX0JI3hglwO-104" target="sUDtb3LlWLY9NKX-znG5-49">
          <mxGeometry relative="1" as="geometry">
            <Array as="points">
              <mxPoint x="1080" y="1350" />
              <mxPoint x="1080" y="1170" />
            </Array>
          </mxGeometry>
        </mxCell>
        <mxCell id="VLAGOy37USX0JI3hglwO-104" value="exptression" style="rounded=0;whiteSpace=wrap;html=1;fontFamily=Courier New;align=left;fillColor=#dae8fc;strokeColor=#6c8ebf;" parent="1" vertex="1">
          <mxGeometry x="800" y="1340" width="200" height="20" as="geometry" />
        </mxCell>
        <mxCell id="sUDtb3LlWLY9NKX-znG5-1" style="edgeStyle=orthogonalEdgeStyle;rounded=0;orthogonalLoop=1;jettySize=auto;html=1;entryX=1;entryY=0;entryDx=0;entryDy=0;jumpStyle=arc;" edge="1" parent="1" source="VLAGOy37USX0JI3hglwO-105" target="VLAGOy37USX0JI3hglwO-70">
          <mxGeometry relative="1" as="geometry">
            <Array as="points">
              <mxPoint x="520" y="1370" />
              <mxPoint x="520" y="1140" />
            </Array>
          </mxGeometry>
        </mxCell>
        <mxCell id="VLAGOy37USX0JI3hglwO-105" value="ifTrue" style="rounded=0;whiteSpace=wrap;html=1;fontFamily=Courier New;align=left;fillColor=#dae8fc;strokeColor=#6c8ebf;" parent="1" vertex="1">
          <mxGeometry x="800" y="1360" width="200" height="20" as="geometry" />
        </mxCell>
        <mxCell id="sUDtb3LlWLY9NKX-znG5-2" style="edgeStyle=orthogonalEdgeStyle;rounded=0;orthogonalLoop=1;jettySize=auto;html=1;jumpStyle=arc;entryX=1;entryY=0;entryDx=0;entryDy=0;" edge="1" parent="1" source="VLAGOy37USX0JI3hglwO-106" target="VLAGOy37USX0JI3hglwO-70">
          <mxGeometry relative="1" as="geometry">
            <mxPoint x="440" y="1140" as="targetPoint" />
            <Array as="points">
              <mxPoint x="520" y="1390" />
              <mxPoint x="520" y="1140" />
            </Array>
          </mxGeometry>
        </mxCell>
        <mxCell id="VLAGOy37USX0JI3hglwO-106" value="ifFalse" style="rounded=0;whiteSpace=wrap;html=1;fontFamily=Courier New;align=left;fillColor=#dae8fc;strokeColor=#6c8ebf;" parent="1" vertex="1">
          <mxGeometry x="800" y="1380" width="200" height="20" as="geometry" />
        </mxCell>
        <mxCell id="sUDtb3LlWLY9NKX-znG5-3" value="CstConditionalStatement" style="rounded=0;whiteSpace=wrap;html=1;fontFamily=Courier New;align=left;fontStyle=1;fillColor=#dae8fc;strokeColor=#6c8ebf;" vertex="1" parent="1">
          <mxGeometry x="800" y="1440" width="200" height="20" as="geometry" />
        </mxCell>
        <mxCell id="sUDtb3LlWLY9NKX-znG5-57" style="edgeStyle=orthogonalEdgeStyle;rounded=0;orthogonalLoop=1;jettySize=auto;html=1;entryX=0;entryY=0.5;entryDx=0;entryDy=0;jumpStyle=arc;" edge="1" parent="1" source="sUDtb3LlWLY9NKX-znG5-4" target="sUDtb3LlWLY9NKX-znG5-49">
          <mxGeometry relative="1" as="geometry">
            <Array as="points">
              <mxPoint x="1080" y="1470" />
              <mxPoint x="1080" y="1170" />
            </Array>
          </mxGeometry>
        </mxCell>
        <mxCell id="sUDtb3LlWLY9NKX-znG5-4" value="exptression" style="rounded=0;whiteSpace=wrap;html=1;fontFamily=Courier New;align=left;fillColor=#dae8fc;strokeColor=#6c8ebf;" vertex="1" parent="1">
          <mxGeometry x="800" y="1460" width="200" height="20" as="geometry" />
        </mxCell>
        <mxCell id="sUDtb3LlWLY9NKX-znG5-6" style="edgeStyle=orthogonalEdgeStyle;rounded=0;orthogonalLoop=1;jettySize=auto;html=1;entryX=1;entryY=0;entryDx=0;entryDy=0;jumpStyle=arc;" edge="1" parent="1" source="sUDtb3LlWLY9NKX-znG5-5" target="VLAGOy37USX0JI3hglwO-70">
          <mxGeometry relative="1" as="geometry">
            <Array as="points">
              <mxPoint x="520" y="1490" />
              <mxPoint x="520" y="1140" />
            </Array>
          </mxGeometry>
        </mxCell>
        <mxCell id="sUDtb3LlWLY9NKX-znG5-5" value="statement" style="rounded=0;whiteSpace=wrap;html=1;fontFamily=Courier New;align=left;fillColor=#dae8fc;strokeColor=#6c8ebf;" vertex="1" parent="1">
          <mxGeometry x="800" y="1480" width="200" height="20" as="geometry" />
        </mxCell>
        <mxCell id="sUDtb3LlWLY9NKX-znG5-7" value="CstExpressionType" style="rounded=0;whiteSpace=wrap;html=1;fontFamily=Courier New;align=left;fontStyle=1;fillColor=#ffe6cc;strokeColor=#d79b00;" vertex="1" parent="1">
          <mxGeometry x="1320" y="280" width="200" height="20" as="geometry" />
        </mxCell>
        <mxCell id="sUDtb3LlWLY9NKX-znG5-9" value="CST_CALL_EXPR" style="rounded=0;whiteSpace=wrap;html=1;fontFamily=Courier New;align=left;fillColor=#ffe6cc;strokeColor=#d79b00;" vertex="1" parent="1">
          <mxGeometry x="1320" y="300" width="200" height="20" as="geometry" />
        </mxCell>
        <mxCell id="sUDtb3LlWLY9NKX-znG5-10" value="CST_INVOKE_EXPR" style="rounded=0;whiteSpace=wrap;html=1;fontFamily=Courier New;align=left;fillColor=#ffe6cc;strokeColor=#d79b00;" vertex="1" parent="1">
          <mxGeometry x="1320" y="320" width="200" height="20" as="geometry" />
        </mxCell>
        <mxCell id="sUDtb3LlWLY9NKX-znG5-11" value="CST_DOT_EXPR" style="rounded=0;whiteSpace=wrap;html=1;fontFamily=Courier New;align=left;fillColor=#ffe6cc;strokeColor=#d79b00;" vertex="1" parent="1">
          <mxGeometry x="1320" y="340" width="200" height="20" as="geometry" />
        </mxCell>
        <mxCell id="sUDtb3LlWLY9NKX-znG5-12" value="CST_NEGATION_EXPR" style="rounded=0;whiteSpace=wrap;html=1;fontFamily=Courier New;align=left;fillColor=#ffe6cc;strokeColor=#d79b00;" vertex="1" parent="1">
          <mxGeometry x="1320" y="360" width="200" height="20" as="geometry" />
        </mxCell>
        <mxCell id="sUDtb3LlWLY9NKX-znG5-13" value="CST_SUBTRACTION_EXPR" style="rounded=0;whiteSpace=wrap;html=1;fontFamily=Courier New;align=left;fillColor=#ffe6cc;strokeColor=#d79b00;" vertex="1" parent="1">
          <mxGeometry x="1320" y="380" width="200" height="20" as="geometry" />
        </mxCell>
        <mxCell id="sUDtb3LlWLY9NKX-znG5-14" value="CST_ADDITION_EXPR" style="rounded=0;whiteSpace=wrap;html=1;fontFamily=Courier New;align=left;fillColor=#ffe6cc;strokeColor=#d79b00;" vertex="1" parent="1">
          <mxGeometry x="1320" y="400" width="200" height="20" as="geometry" />
        </mxCell>
        <mxCell id="sUDtb3LlWLY9NKX-znG5-15" value="CST_DIVISION_EXPR" style="rounded=0;whiteSpace=wrap;html=1;fontFamily=Courier New;align=left;fillColor=#ffe6cc;strokeColor=#d79b00;" vertex="1" parent="1">
          <mxGeometry x="1320" y="420" width="200" height="20" as="geometry" />
        </mxCell>
        <mxCell id="sUDtb3LlWLY9NKX-znG5-16" value="CST_MULTIPLICATION_EXPR" style="rounded=0;whiteSpace=wrap;html=1;fontFamily=Courier New;align=left;fillColor=#ffe6cc;strokeColor=#d79b00;" vertex="1" parent="1">
          <mxGeometry x="1320" y="440" width="200" height="20" as="geometry" />
        </mxCell>
        <mxCell id="sUDtb3LlWLY9NKX-znG5-17" value="CST_LIST_EXPR" style="rounded=0;whiteSpace=wrap;html=1;fontFamily=Courier New;align=left;fillColor=#ffe6cc;strokeColor=#d79b00;" vertex="1" parent="1">
          <mxGeometry x="1320" y="460" width="200" height="20" as="geometry" />
        </mxCell>
        <mxCell id="sUDtb3LlWLY9NKX-znG5-18" value="CST_CONS_EXPR" style="rounded=0;whiteSpace=wrap;html=1;fontFamily=Courier New;align=left;fillColor=#ffe6cc;strokeColor=#d79b00;" vertex="1" parent="1">
          <mxGeometry x="1320" y="480" width="200" height="20" as="geometry" />
        </mxCell>
        <mxCell id="sUDtb3LlWLY9NKX-znG5-19" value="CST_APPEND_EXPR" style="rounded=0;whiteSpace=wrap;html=1;fontFamily=Courier New;align=left;fillColor=#ffe6cc;strokeColor=#d79b00;" vertex="1" parent="1">
          <mxGeometry x="1320" y="500" width="200" height="20" as="geometry" />
        </mxCell>
        <mxCell id="sUDtb3LlWLY9NKX-znG5-20" value="CST_NOT_EXPR" style="rounded=0;whiteSpace=wrap;html=1;fontFamily=Courier New;align=left;fillColor=#ffe6cc;strokeColor=#d79b00;" vertex="1" parent="1">
          <mxGeometry x="1320" y="520" width="200" height="20" as="geometry" />
        </mxCell>
        <mxCell id="sUDtb3LlWLY9NKX-znG5-21" value="CST_NE_EXPR" style="rounded=0;whiteSpace=wrap;html=1;fontFamily=Courier New;align=left;fillColor=#ffe6cc;strokeColor=#d79b00;" vertex="1" parent="1">
          <mxGeometry x="1320" y="540" width="200" height="20" as="geometry" />
        </mxCell>
        <mxCell id="sUDtb3LlWLY9NKX-znG5-22" value="CST_EQ_EXPR" style="rounded=0;whiteSpace=wrap;html=1;fontFamily=Courier New;align=left;fillColor=#ffe6cc;strokeColor=#d79b00;" vertex="1" parent="1">
          <mxGeometry x="1320" y="560" width="200" height="20" as="geometry" />
        </mxCell>
        <mxCell id="sUDtb3LlWLY9NKX-znG5-23" value="CST_CDR_EXPR" style="rounded=0;whiteSpace=wrap;html=1;fontFamily=Courier New;align=left;fillColor=#ffe6cc;strokeColor=#d79b00;" vertex="1" parent="1">
          <mxGeometry x="1320" y="580" width="200" height="20" as="geometry" />
        </mxCell>
        <mxCell id="sUDtb3LlWLY9NKX-znG5-24" value="CST_GE_EXPR" style="rounded=0;whiteSpace=wrap;html=1;fontFamily=Courier New;align=left;fillColor=#ffe6cc;strokeColor=#d79b00;" vertex="1" parent="1">
          <mxGeometry x="1320" y="600" width="200" height="20" as="geometry" />
        </mxCell>
        <mxCell id="sUDtb3LlWLY9NKX-znG5-25" value="CST_CAR_EXPR" style="rounded=0;whiteSpace=wrap;html=1;fontFamily=Courier New;align=left;fillColor=#ffe6cc;strokeColor=#d79b00;" vertex="1" parent="1">
          <mxGeometry x="1320" y="620" width="200" height="20" as="geometry" />
        </mxCell>
        <mxCell id="sUDtb3LlWLY9NKX-znG5-26" value="CST_LT_EXPR" style="rounded=0;whiteSpace=wrap;html=1;fontFamily=Courier New;align=left;fillColor=#ffe6cc;strokeColor=#d79b00;" vertex="1" parent="1">
          <mxGeometry x="1320" y="640" width="200" height="20" as="geometry" />
        </mxCell>
        <mxCell id="sUDtb3LlWLY9NKX-znG5-28" value="CST_LE_EXPR" style="rounded=0;whiteSpace=wrap;html=1;fontFamily=Courier New;align=left;fillColor=#ffe6cc;strokeColor=#d79b00;" vertex="1" parent="1">
          <mxGeometry x="1320" y="660" width="200" height="20" as="geometry" />
        </mxCell>
        <mxCell id="sUDtb3LlWLY9NKX-znG5-29" value="CST_VAR_EXPR" style="rounded=0;whiteSpace=wrap;html=1;fontFamily=Courier New;align=left;fillColor=#ffe6cc;strokeColor=#d79b00;" vertex="1" parent="1">
          <mxGeometry x="1320" y="680" width="200" height="20" as="geometry" />
        </mxCell>
        <mxCell id="sUDtb3LlWLY9NKX-znG5-30" value="CST_ASSIGN_EXPR" style="rounded=0;whiteSpace=wrap;html=1;fontFamily=Courier New;align=left;fillColor=#ffe6cc;strokeColor=#d79b00;" vertex="1" parent="1">
          <mxGeometry x="1320" y="700" width="200" height="20" as="geometry" />
        </mxCell>
        <mxCell id="sUDtb3LlWLY9NKX-znG5-31" value="CST_SETPROP_EXPR" style="rounded=0;whiteSpace=wrap;html=1;fontFamily=Courier New;align=left;fillColor=#ffe6cc;strokeColor=#d79b00;" vertex="1" parent="1">
          <mxGeometry x="1320" y="720" width="200" height="20" as="geometry" />
        </mxCell>
        <mxCell id="sUDtb3LlWLY9NKX-znG5-32" value="CST_STRING_EXPR" style="rounded=0;whiteSpace=wrap;html=1;fontFamily=Courier New;align=left;fillColor=#ffe6cc;strokeColor=#d79b00;" vertex="1" parent="1">
          <mxGeometry x="1320" y="740" width="200" height="20" as="geometry" />
        </mxCell>
        <mxCell id="sUDtb3LlWLY9NKX-znG5-33" value="CST_NUMBER_EXPR" style="rounded=0;whiteSpace=wrap;html=1;fontFamily=Courier New;align=left;fillColor=#ffe6cc;strokeColor=#d79b00;" vertex="1" parent="1">
          <mxGeometry x="1320" y="760" width="200" height="20" as="geometry" />
        </mxCell>
        <mxCell id="sUDtb3LlWLY9NKX-znG5-34" value="CST_AND_EXPR" style="rounded=0;whiteSpace=wrap;html=1;fontFamily=Courier New;align=left;fillColor=#ffe6cc;strokeColor=#d79b00;" vertex="1" parent="1">
          <mxGeometry x="1320" y="780" width="200" height="20" as="geometry" />
        </mxCell>
        <mxCell id="sUDtb3LlWLY9NKX-znG5-35" value="CST_FALSE_EXPR" style="rounded=0;whiteSpace=wrap;html=1;fontFamily=Courier New;align=left;fillColor=#ffe6cc;strokeColor=#d79b00;" vertex="1" parent="1">
          <mxGeometry x="1320" y="800" width="200" height="20" as="geometry" />
        </mxCell>
        <mxCell id="sUDtb3LlWLY9NKX-znG5-36" value="CST_FUN_EXPR" style="rounded=0;whiteSpace=wrap;html=1;fontFamily=Courier New;align=left;fillColor=#ffe6cc;strokeColor=#d79b00;" vertex="1" parent="1">
          <mxGeometry x="1320" y="820" width="200" height="20" as="geometry" />
        </mxCell>
        <mxCell id="sUDtb3LlWLY9NKX-znG5-37" value="CST_NIL_EXPR" style="rounded=0;whiteSpace=wrap;html=1;fontFamily=Courier New;align=left;fillColor=#ffe6cc;strokeColor=#d79b00;" vertex="1" parent="1">
          <mxGeometry x="1320" y="840" width="200" height="20" as="geometry" />
        </mxCell>
        <mxCell id="sUDtb3LlWLY9NKX-znG5-38" value="CST_OR_EXPR" style="rounded=0;whiteSpace=wrap;html=1;fontFamily=Courier New;align=left;fillColor=#ffe6cc;strokeColor=#d79b00;" vertex="1" parent="1">
          <mxGeometry x="1320" y="860" width="200" height="20" as="geometry" />
        </mxCell>
        <mxCell id="sUDtb3LlWLY9NKX-znG5-39" value="CST_SUPER_GET_EXPR" style="rounded=0;whiteSpace=wrap;html=1;fontFamily=Courier New;align=left;fillColor=#ffe6cc;strokeColor=#d79b00;" vertex="1" parent="1">
          <mxGeometry x="1320" y="880" width="200" height="20" as="geometry" />
        </mxCell>
        <mxCell id="sUDtb3LlWLY9NKX-znG5-40" value="CST_SUPER_INVOKE_EXPR" style="rounded=0;whiteSpace=wrap;html=1;fontFamily=Courier New;align=left;fillColor=#ffe6cc;strokeColor=#d79b00;" vertex="1" parent="1">
          <mxGeometry x="1320" y="900" width="200" height="20" as="geometry" />
        </mxCell>
        <mxCell id="sUDtb3LlWLY9NKX-znG5-41" value="CST_THIS_EXPR" style="rounded=0;whiteSpace=wrap;html=1;fontFamily=Courier New;align=left;fillColor=#ffe6cc;strokeColor=#d79b00;" vertex="1" parent="1">
          <mxGeometry x="1320" y="920" width="200" height="20" as="geometry" />
        </mxCell>
        <mxCell id="sUDtb3LlWLY9NKX-znG5-42" value="CST_TRUE_EXPR" style="rounded=0;whiteSpace=wrap;html=1;fontFamily=Courier New;align=left;fillColor=#ffe6cc;strokeColor=#d79b00;" vertex="1" parent="1">
          <mxGeometry x="1320" y="940" width="200" height="20" as="geometry" />
        </mxCell>
        <mxCell id="sUDtb3LlWLY9NKX-znG5-43" value="CstExpressionValue" style="rounded=0;whiteSpace=wrap;html=1;fontFamily=Courier New;align=left;fontStyle=1;fillColor=#d5e8d4;strokeColor=#82b366;" vertex="1" parent="1">
          <mxGeometry x="1320" y="1000" width="200" height="20" as="geometry" />
        </mxCell>
        <mxCell id="sUDtb3LlWLY9NKX-znG5-81" style="edgeStyle=orthogonalEdgeStyle;rounded=0;orthogonalLoop=1;jettySize=auto;html=1;entryX=0;entryY=0.5;entryDx=0;entryDy=0;jumpStyle=arc;" edge="1" parent="1" source="sUDtb3LlWLY9NKX-znG5-44" target="sUDtb3LlWLY9NKX-znG5-71">
          <mxGeometry relative="1" as="geometry">
            <Array as="points">
              <mxPoint x="1160" y="1030" />
              <mxPoint x="1160" y="1370" />
            </Array>
          </mxGeometry>
        </mxCell>
        <mxCell id="sUDtb3LlWLY9NKX-znG5-44" value="call" style="rounded=0;whiteSpace=wrap;html=1;fontFamily=Courier New;align=left;fillColor=#d5e8d4;strokeColor=#82b366;" vertex="1" parent="1">
          <mxGeometry x="1320" y="1020" width="200" height="20" as="geometry" />
        </mxCell>
        <mxCell id="sUDtb3LlWLY9NKX-znG5-68" style="edgeStyle=orthogonalEdgeStyle;rounded=0;orthogonalLoop=1;jettySize=auto;html=1;entryX=0;entryY=0.5;entryDx=0;entryDy=0;jumpStyle=arc;" edge="1" parent="1" source="sUDtb3LlWLY9NKX-znG5-45" target="sUDtb3LlWLY9NKX-znG5-66">
          <mxGeometry relative="1" as="geometry">
            <Array as="points">
              <mxPoint x="1200" y="1050" />
              <mxPoint x="1200" y="1270" />
            </Array>
          </mxGeometry>
        </mxCell>
        <mxCell id="sUDtb3LlWLY9NKX-znG5-45" value="binary" style="rounded=0;whiteSpace=wrap;html=1;fontFamily=Courier New;align=left;fillColor=#d5e8d4;strokeColor=#82b366;" vertex="1" parent="1">
          <mxGeometry x="1320" y="1040" width="200" height="20" as="geometry" />
        </mxCell>
        <mxCell id="sUDtb3LlWLY9NKX-znG5-64" style="edgeStyle=orthogonalEdgeStyle;rounded=0;orthogonalLoop=1;jettySize=auto;html=1;entryX=0;entryY=0.5;entryDx=0;entryDy=0;jumpStyle=arc;" edge="1" parent="1" source="sUDtb3LlWLY9NKX-znG5-46" target="sUDtb3LlWLY9NKX-znG5-49">
          <mxGeometry relative="1" as="geometry">
            <Array as="points">
              <mxPoint x="1240" y="1070" />
              <mxPoint x="1240" y="1170" />
            </Array>
          </mxGeometry>
        </mxCell>
        <mxCell id="sUDtb3LlWLY9NKX-znG5-46" value="unary" style="rounded=0;whiteSpace=wrap;html=1;fontFamily=Courier New;align=left;fillColor=#d5e8d4;strokeColor=#82b366;" vertex="1" parent="1">
          <mxGeometry x="1320" y="1060" width="200" height="20" as="geometry" />
        </mxCell>
        <mxCell id="sUDtb3LlWLY9NKX-znG5-84" style="edgeStyle=orthogonalEdgeStyle;rounded=0;orthogonalLoop=1;jettySize=auto;html=1;entryX=0;entryY=0.5;entryDx=0;entryDy=0;jumpStyle=arc;" edge="1" parent="1" source="sUDtb3LlWLY9NKX-znG5-47" target="sUDtb3LlWLY9NKX-znG5-82">
          <mxGeometry relative="1" as="geometry">
            <Array as="points">
              <mxPoint x="1280" y="1090" />
              <mxPoint x="1280" y="1570" />
            </Array>
          </mxGeometry>
        </mxCell>
        <mxCell id="sUDtb3LlWLY9NKX-znG5-47" value="string" style="rounded=0;whiteSpace=wrap;html=1;fontFamily=Courier New;align=left;fillColor=#d5e8d4;strokeColor=#82b366;" vertex="1" parent="1">
          <mxGeometry x="1320" y="1080" width="200" height="20" as="geometry" />
        </mxCell>
        <mxCell id="sUDtb3LlWLY9NKX-znG5-48" value="value" style="rounded=0;whiteSpace=wrap;html=1;fontFamily=Courier New;align=left;fillColor=#f5f5f5;strokeColor=#666666;fontColor=#333333;" vertex="1" parent="1">
          <mxGeometry x="1320" y="1100" width="200" height="20" as="geometry" />
        </mxCell>
        <mxCell id="sUDtb3LlWLY9NKX-znG5-49" value="CstExpression" style="rounded=0;whiteSpace=wrap;html=1;fontFamily=Courier New;align=left;fontStyle=1;fillColor=#dae8fc;strokeColor=#6c8ebf;" vertex="1" parent="1">
          <mxGeometry x="1320" y="1160" width="200" height="20" as="geometry" />
        </mxCell>
        <mxCell id="sUDtb3LlWLY9NKX-znG5-62" style="edgeStyle=orthogonalEdgeStyle;rounded=0;orthogonalLoop=1;jettySize=auto;html=1;entryX=1;entryY=0.5;entryDx=0;entryDy=0;jumpStyle=arc;startArrow=ERmandOne;startFill=0;" edge="1" parent="1" source="sUDtb3LlWLY9NKX-znG5-59" target="sUDtb3LlWLY9NKX-znG5-7">
          <mxGeometry relative="1" as="geometry">
            <Array as="points">
              <mxPoint x="1560" y="1190" />
              <mxPoint x="1560" y="290" />
            </Array>
          </mxGeometry>
        </mxCell>
        <mxCell id="sUDtb3LlWLY9NKX-znG5-59" value="type" style="rounded=0;whiteSpace=wrap;html=1;fontFamily=Courier New;align=left;fillColor=#ffe6cc;strokeColor=#d79b00;" vertex="1" parent="1">
          <mxGeometry x="1320" y="1180" width="200" height="20" as="geometry" />
        </mxCell>
        <mxCell id="sUDtb3LlWLY9NKX-znG5-61" style="edgeStyle=orthogonalEdgeStyle;rounded=0;orthogonalLoop=1;jettySize=auto;html=1;entryX=1;entryY=0.5;entryDx=0;entryDy=0;jumpStyle=arc;startArrow=circlePlus;startFill=0;" edge="1" parent="1" source="sUDtb3LlWLY9NKX-znG5-60" target="sUDtb3LlWLY9NKX-znG5-43">
          <mxGeometry relative="1" as="geometry">
            <Array as="points">
              <mxPoint x="1640" y="1210" />
              <mxPoint x="1640" y="1010" />
            </Array>
          </mxGeometry>
        </mxCell>
        <mxCell id="sUDtb3LlWLY9NKX-znG5-60" value="expression" style="rounded=0;whiteSpace=wrap;html=1;fontFamily=Courier New;align=left;fillColor=#d5e8d4;strokeColor=#82b366;" vertex="1" parent="1">
          <mxGeometry x="1320" y="1200" width="200" height="20" as="geometry" />
        </mxCell>
        <mxCell id="sUDtb3LlWLY9NKX-znG5-69" style="edgeStyle=orthogonalEdgeStyle;rounded=0;orthogonalLoop=1;jettySize=auto;html=1;entryX=1;entryY=0.5;entryDx=0;entryDy=0;jumpStyle=arc;" edge="1" parent="1" source="sUDtb3LlWLY9NKX-znG5-65" target="sUDtb3LlWLY9NKX-znG5-49">
          <mxGeometry relative="1" as="geometry">
            <Array as="points">
              <mxPoint x="1600" y="1290" />
              <mxPoint x="1600" y="1170" />
            </Array>
          </mxGeometry>
        </mxCell>
        <mxCell id="sUDtb3LlWLY9NKX-znG5-65" value="left" style="rounded=0;whiteSpace=wrap;html=1;fontFamily=Courier New;align=left;fillColor=#dae8fc;strokeColor=#6c8ebf;" vertex="1" parent="1">
          <mxGeometry x="1320" y="1280" width="200" height="20" as="geometry" />
        </mxCell>
        <mxCell id="sUDtb3LlWLY9NKX-znG5-66" value="CstBinaryExpression" style="rounded=0;whiteSpace=wrap;html=1;fontFamily=Courier New;align=left;fontStyle=1;fillColor=#dae8fc;strokeColor=#6c8ebf;" vertex="1" parent="1">
          <mxGeometry x="1320" y="1260" width="200" height="20" as="geometry" />
        </mxCell>
        <mxCell id="sUDtb3LlWLY9NKX-znG5-70" style="edgeStyle=orthogonalEdgeStyle;rounded=0;orthogonalLoop=1;jettySize=auto;html=1;jumpStyle=arc;entryX=1;entryY=0.5;entryDx=0;entryDy=0;" edge="1" parent="1" source="sUDtb3LlWLY9NKX-znG5-67" target="sUDtb3LlWLY9NKX-znG5-49">
          <mxGeometry relative="1" as="geometry">
            <Array as="points">
              <mxPoint x="1600" y="1310" />
              <mxPoint x="1600" y="1170" />
            </Array>
          </mxGeometry>
        </mxCell>
        <mxCell id="sUDtb3LlWLY9NKX-znG5-67" value="right" style="rounded=0;whiteSpace=wrap;html=1;fontFamily=Courier New;align=left;fillColor=#dae8fc;strokeColor=#6c8ebf;" vertex="1" parent="1">
          <mxGeometry x="1320" y="1300" width="200" height="20" as="geometry" />
        </mxCell>
        <mxCell id="sUDtb3LlWLY9NKX-znG5-71" value="CstCallExpression" style="rounded=0;whiteSpace=wrap;html=1;fontFamily=Courier New;align=left;fontStyle=1;fillColor=#dae8fc;strokeColor=#6c8ebf;" vertex="1" parent="1">
          <mxGeometry x="1320" y="1360" width="200" height="20" as="geometry" />
        </mxCell>
        <mxCell id="sUDtb3LlWLY9NKX-znG5-74" style="edgeStyle=orthogonalEdgeStyle;rounded=0;orthogonalLoop=1;jettySize=auto;html=1;entryX=1;entryY=0.5;entryDx=0;entryDy=0;jumpStyle=arc;" edge="1" parent="1" source="sUDtb3LlWLY9NKX-znG5-72" target="sUDtb3LlWLY9NKX-znG5-49">
          <mxGeometry relative="1" as="geometry">
            <Array as="points">
              <mxPoint x="1600" y="1390" />
              <mxPoint x="1600" y="1170" />
            </Array>
          </mxGeometry>
        </mxCell>
        <mxCell id="sUDtb3LlWLY9NKX-znG5-72" value="function" style="rounded=0;whiteSpace=wrap;html=1;fontFamily=Courier New;align=left;fillColor=#dae8fc;strokeColor=#6c8ebf;" vertex="1" parent="1">
          <mxGeometry x="1320" y="1380" width="200" height="20" as="geometry" />
        </mxCell>
        <mxCell id="sUDtb3LlWLY9NKX-znG5-77" style="edgeStyle=orthogonalEdgeStyle;rounded=0;orthogonalLoop=1;jettySize=auto;html=1;entryX=1;entryY=0.5;entryDx=0;entryDy=0;" edge="1" parent="1" source="sUDtb3LlWLY9NKX-znG5-73" target="sUDtb3LlWLY9NKX-znG5-75">
          <mxGeometry relative="1" as="geometry">
            <Array as="points">
              <mxPoint x="1560" y="1410" />
              <mxPoint x="1560" y="1470" />
            </Array>
          </mxGeometry>
        </mxCell>
        <mxCell id="sUDtb3LlWLY9NKX-znG5-73" value="arguments" style="rounded=0;whiteSpace=wrap;html=1;fontFamily=Courier New;align=left;fillColor=#dae8fc;strokeColor=#6c8ebf;" vertex="1" parent="1">
          <mxGeometry x="1320" y="1400" width="200" height="20" as="geometry" />
        </mxCell>
        <mxCell id="sUDtb3LlWLY9NKX-znG5-75" value="CstExpressionList" style="rounded=0;whiteSpace=wrap;html=1;fontFamily=Courier New;align=left;fontStyle=1;fillColor=#dae8fc;strokeColor=#6c8ebf;" vertex="1" parent="1">
          <mxGeometry x="1320" y="1460" width="200" height="20" as="geometry" />
        </mxCell>
        <mxCell id="sUDtb3LlWLY9NKX-znG5-78" style="edgeStyle=orthogonalEdgeStyle;rounded=0;orthogonalLoop=1;jettySize=auto;html=1;entryX=1;entryY=0.5;entryDx=0;entryDy=0;jumpStyle=arc;" edge="1" parent="1" source="sUDtb3LlWLY9NKX-znG5-76" target="sUDtb3LlWLY9NKX-znG5-49">
          <mxGeometry relative="1" as="geometry">
            <Array as="points">
              <mxPoint x="1600" y="1490" />
              <mxPoint x="1600" y="1170" />
            </Array>
          </mxGeometry>
        </mxCell>
        <mxCell id="sUDtb3LlWLY9NKX-znG5-76" value="exptression" style="rounded=0;whiteSpace=wrap;html=1;fontFamily=Courier New;align=left;fillColor=#dae8fc;strokeColor=#6c8ebf;" vertex="1" parent="1">
          <mxGeometry x="1320" y="1480" width="200" height="20" as="geometry" />
        </mxCell>
        <mxCell id="sUDtb3LlWLY9NKX-znG5-80" style="edgeStyle=orthogonalEdgeStyle;rounded=0;orthogonalLoop=1;jettySize=auto;html=1;jumpStyle=arc;" edge="1" parent="1" source="sUDtb3LlWLY9NKX-znG5-79">
          <mxGeometry relative="1" as="geometry">
            <mxPoint x="1520" y="1470" as="targetPoint" />
            <Array as="points">
              <mxPoint x="1560" y="1510" />
              <mxPoint x="1560" y="1470" />
            </Array>
          </mxGeometry>
        </mxCell>
        <mxCell id="sUDtb3LlWLY9NKX-znG5-79" value="next" style="rounded=0;whiteSpace=wrap;html=1;fontFamily=Courier New;align=left;fillColor=#dae8fc;strokeColor=#6c8ebf;" vertex="1" parent="1">
          <mxGeometry x="1320" y="1500" width="200" height="20" as="geometry" />
        </mxCell>
        <mxCell id="sUDtb3LlWLY9NKX-znG5-82" value="CstStringExpression" style="rounded=0;whiteSpace=wrap;html=1;fontFamily=Courier New;align=left;fontStyle=1;fillColor=#dae8fc;strokeColor=#6c8ebf;" vertex="1" parent="1">
          <mxGeometry x="1320" y="1560" width="200" height="20" as="geometry" />
        </mxCell>
        <mxCell id="sUDtb3LlWLY9NKX-znG5-83" value="value" style="rounded=0;whiteSpace=wrap;html=1;fontFamily=Courier New;align=left;fillColor=#f5f5f5;strokeColor=#666666;fontColor=#333333;" vertex="1" parent="1">
          <mxGeometry x="1320" y="1580" width="200" height="20" as="geometry" />
        </mxCell>
      </root>
    </mxGraphModel>
  </diagram>
</mxfile>
